<mxfile host="app.diagrams.net" agent="Mozilla/5.0 (Windows NT 10.0; Win64; x64) AppleWebKit/537.36 (KHTML, like Gecko) Chrome/128.0.0.0 Safari/537.36 Edg/128.0.0.0" version="24.7.8">
  <diagram name="Page-1" id="qUphheCu9nbXFUPOmkRN">
    <mxGraphModel dx="1666" dy="1857" grid="1" gridSize="10" guides="1" tooltips="1" connect="1" arrows="1" fold="1" page="1" pageScale="1" pageWidth="850" pageHeight="1100" math="0" shadow="0">
      <root>
        <mxCell id="0" />
        <mxCell id="1" parent="0" />
        <mxCell id="PUaMvtJgLHg2cAVzLse6-3" value="" style="edgeStyle=orthogonalEdgeStyle;rounded=0;orthogonalLoop=1;jettySize=auto;html=1;" edge="1" parent="1" source="PUaMvtJgLHg2cAVzLse6-1" target="PUaMvtJgLHg2cAVzLse6-2">
          <mxGeometry relative="1" as="geometry" />
        </mxCell>
        <mxCell id="PUaMvtJgLHg2cAVzLse6-1" value="Start" style="strokeWidth=2;html=1;shape=mxgraph.flowchart.terminator;whiteSpace=wrap;" vertex="1" parent="1">
          <mxGeometry x="330" y="-40" width="100" height="60" as="geometry" />
        </mxCell>
        <mxCell id="PUaMvtJgLHg2cAVzLse6-5" value="" style="edgeStyle=orthogonalEdgeStyle;rounded=0;orthogonalLoop=1;jettySize=auto;html=1;" edge="1" parent="1" source="PUaMvtJgLHg2cAVzLse6-2" target="PUaMvtJgLHg2cAVzLse6-4">
          <mxGeometry relative="1" as="geometry" />
        </mxCell>
        <mxCell id="PUaMvtJgLHg2cAVzLse6-2" value="Sum = 0" style="whiteSpace=wrap;html=1;strokeWidth=2;" vertex="1" parent="1">
          <mxGeometry x="320" y="100" width="120" height="60" as="geometry" />
        </mxCell>
        <mxCell id="PUaMvtJgLHg2cAVzLse6-7" value="" style="edgeStyle=orthogonalEdgeStyle;rounded=0;orthogonalLoop=1;jettySize=auto;html=1;" edge="1" parent="1" source="PUaMvtJgLHg2cAVzLse6-4" target="PUaMvtJgLHg2cAVzLse6-6">
          <mxGeometry relative="1" as="geometry" />
        </mxCell>
        <mxCell id="PUaMvtJgLHg2cAVzLse6-4" value="Get a value" style="shape=parallelogram;perimeter=parallelogramPerimeter;whiteSpace=wrap;html=1;fixedSize=1;strokeWidth=2;" vertex="1" parent="1">
          <mxGeometry x="320" y="240" width="120" height="60" as="geometry" />
        </mxCell>
        <mxCell id="PUaMvtJgLHg2cAVzLse6-9" value="" style="edgeStyle=orthogonalEdgeStyle;rounded=0;orthogonalLoop=1;jettySize=auto;html=1;" edge="1" parent="1" source="PUaMvtJgLHg2cAVzLse6-6" target="PUaMvtJgLHg2cAVzLse6-8">
          <mxGeometry relative="1" as="geometry" />
        </mxCell>
        <mxCell id="PUaMvtJgLHg2cAVzLse6-14" style="edgeStyle=orthogonalEdgeStyle;rounded=0;orthogonalLoop=1;jettySize=auto;html=1;entryX=1;entryY=0.5;entryDx=0;entryDy=0;" edge="1" parent="1" source="PUaMvtJgLHg2cAVzLse6-6" target="PUaMvtJgLHg2cAVzLse6-10">
          <mxGeometry relative="1" as="geometry">
            <Array as="points">
              <mxPoint x="510" y="430" />
              <mxPoint x="510" y="790" />
            </Array>
          </mxGeometry>
        </mxCell>
        <mxCell id="PUaMvtJgLHg2cAVzLse6-6" value="If the value = -1, got to step 7" style="rhombus;whiteSpace=wrap;html=1;strokeWidth=2;" vertex="1" parent="1">
          <mxGeometry x="292.5" y="360" width="175" height="140" as="geometry" />
        </mxCell>
        <mxCell id="PUaMvtJgLHg2cAVzLse6-11" value="" style="edgeStyle=orthogonalEdgeStyle;rounded=0;orthogonalLoop=1;jettySize=auto;html=1;" edge="1" parent="1" source="PUaMvtJgLHg2cAVzLse6-8" target="PUaMvtJgLHg2cAVzLse6-10">
          <mxGeometry relative="1" as="geometry" />
        </mxCell>
        <mxCell id="PUaMvtJgLHg2cAVzLse6-8" value="Add to sum&lt;div&gt;(sum = sum + value)&lt;/div&gt;" style="whiteSpace=wrap;html=1;strokeWidth=2;" vertex="1" parent="1">
          <mxGeometry x="320" y="620" width="120" height="60" as="geometry" />
        </mxCell>
        <mxCell id="PUaMvtJgLHg2cAVzLse6-13" value="" style="edgeStyle=orthogonalEdgeStyle;rounded=0;orthogonalLoop=1;jettySize=auto;html=1;" edge="1" parent="1" source="PUaMvtJgLHg2cAVzLse6-10" target="PUaMvtJgLHg2cAVzLse6-12">
          <mxGeometry relative="1" as="geometry" />
        </mxCell>
        <mxCell id="PUaMvtJgLHg2cAVzLse6-10" value="Output the sum" style="shape=parallelogram;perimeter=parallelogramPerimeter;whiteSpace=wrap;html=1;fixedSize=1;strokeWidth=2;" vertex="1" parent="1">
          <mxGeometry x="320" y="760" width="120" height="60" as="geometry" />
        </mxCell>
        <mxCell id="PUaMvtJgLHg2cAVzLse6-12" value="Stop" style="strokeWidth=2;html=1;shape=mxgraph.flowchart.terminator;whiteSpace=wrap;" vertex="1" parent="1">
          <mxGeometry x="330" y="870" width="100" height="60" as="geometry" />
        </mxCell>
      </root>
    </mxGraphModel>
  </diagram>
</mxfile>
